<svg version="1.2" xmlns="http://www.w3.org/2000/svg" viewBox="0 0 136 136" width="136" height="136"><style>tspan{white-space:pre}.a{fill:#1ab0ce}.b{fill:none;stroke:#fff;stroke-linecap:round;stroke-linejoin:round;stroke-width:2}.c{font-size: 22px;fill: #ffffff;font-weight: 5;font-style: italic;font-family: "Dubiel-Italic", "Dubiel"}</style><path class="a" d="m68 118c-29.9 0-54-24.1-54-54 0-29.9 24.1-54 54-54 29.9 0 54 24.1 54 54 0 29.9-24.1 54-54 54z"/><path fill-rule="evenodd" class="b" d="m80 49.2v3.5c0 0.6-0.3 1.3-0.8 1.7-0.4 0.4-1.1 0.6-1.7 0.6-3.6-0.4-7-1.6-10-3.6-2.8-1.7-5.2-4.1-6.9-6.9-2-3-3.2-6.4-3.6-10 0-0.6 0.2-1.3 0.6-1.7 0.4-0.5 1.1-0.8 1.7-0.8h3.5c1.1 0 2.1 0.8 2.3 2q0.2 1.7 0.8 3.2c0.3 0.9 0.1 1.8-0.5 2.5l-1.5 1.4c1.7 2.9 4.1 5.3 7 7l1.4-1.5c0.7-0.6 1.6-0.8 2.5-0.5q1.5 0.6 3.2 0.8c1.2 0.1 2 1.1 2 2.3z"/><text style="transform:matrix(1,0,0,1,28.333,87.667)" ><tspan x="0" y="0" class="c">C</tspan><tspan  y="0" class="c">all me</tspan><tspan  y="0" class="c">!</tspan><tspan  y="0" class="c">
</tspan></text></svg>