<svg version="1.2" xmlns="http://www.w3.org/2000/svg" viewBox="0 0 258 77" width="258" height="77"><style>tspan{white-space:pre}.a{font-size: 19px;fill: #000000;font-weight: 5;font-style: italic;font-family: "Dubiel-Italic", "Dubiel"}.b{fill:#5d9cec}.c{fill:#a0d468}.d{fill:#ed5564}.e{fill:#434a54}</style><text style="transform:matrix(1,0,0,1,129.75,69.25)" ><tspan x="0" y="0" class="a">y</tspan><tspan  y="0" class="a">o</tspan><tspan  y="0" class="a">u</tspan><tspan  y="0" class="a">r</tspan><tspan  y="0" class="a"> </tspan><tspan  y="0" class="a">t</tspan><tspan  y="0" class="a">y</tspan><tspan  y="0" class="a">p</tspan><tspan  y="0" class="a">o</tspan><tspan  y="0" class="a">g</tspan><tspan  y="0" class="a">r</tspan><tspan  y="0" class="a">a</tspan><tspan  y="0" class="a">p</tspan><tspan  y="0" class="a">h</tspan><tspan  y="0" class="a">y
</tspan></text><path fill-rule="evenodd" class="b" d="m12.6 54v-32h17.1c7.5 0 11.5 5 11.5 11 0 5.9-4 10.9-11.5 10.9h-7.4v10.1zm18.8-21c0-1.8-1.3-2.6-3-2.6h-6.1v5.1h6.1c1.7 0 3-0.8 3-2.5zm30.6 21l-4.4-10.1h-3.5v10.1h-9.7v-32h17.1c7.4 0 11.5 5 11.5 11 0 5.5-3.2 8.4-5.8 9.7l5.8 11.3zm1.2-21.1c0-1.7-1.6-2.5-3.2-2.5h-5.9v5.1h5.9c1.6 0 3.2-0.8 3.2-2.6zm13.7 21.1v-32h9.7v32zm36.4 0l-11.8-16.2v16.2h-9.7v-32h10l11.1 15.2v-15.2h9.7v32zm21.4 0v-23.6h-8.6v-8.4h26.8v8.4h-8.5v23.6zm21.7 0v-32h24.2v8.4h-14.6v3.2h14.3v8.4h-14.3v3.6h14.6v8.4z"/><path class="b" d="m207.5 6.9c-6.7 3.9-11.2 11.2-11.2 19.6 0 8.3 4.5 15.6 11.2 19.5 6.7-3.9 11.2-11.2 11.2-19.5 0-8.4-4.5-15.7-11.2-19.6z"/><path class="c" d="m196.3 26.5q0 1.3 0.2 2.7c3.2 1.8 7 2.9 11 2.9 12.3 0 22.3-10.1 22.3-22.6q0-1.3-0.1-2.7c-3.3-1.8-7-2.9-11-2.9-12.4 0-22.4 10.1-22.4 22.6z"/><path class="d" d="m196.3 3.9c-4 0-7.7 1.1-11 2.9q-0.1 1.4-0.1 2.7c0 12.5 10 22.6 22.3 22.6 4 0 7.8-1.1 11-2.9q0.2-1.4 0.2-2.7c0-12.5-10-22.6-22.4-22.6z"/><path class="e" d="m208.1 32.1q0.3 0 0.5 0 0.1 0 0.1 0 0.2-0.1 0.4-0.1 0.1 0 0.2 0 0.2 0 0.5 0 0 0 0.1 0 0.2-0.1 0.4-0.1 0 0 0.1 0 0.2 0 0.5-0.1 0 0 0.1 0 0.2 0 0.4 0 0-0.1 0.1-0.1 0.2 0 0.4-0.1 0.1 0 0.2 0 0.2 0 0.3-0.1 0.1 0 0.2 0 0.2 0 0.4-0.1 0.1 0 0.2 0 0.1-0.1 0.3-0.1 0.1-0.1 0.2-0.1 0.2 0 0.3-0.1 0.1 0 0.3-0.1 0.1 0 0.2 0 0.2-0.1 0.3-0.2 0.1 0 0.2 0 0.2-0.1 0.3-0.1 0.1-0.1 0.2-0.1 0.2-0.1 0.4-0.1 0.1-0.1 0.1-0.1 0.2-0.1 0.3-0.1 0 0 0.1-0.1 0.2-0.1 0.5-0.2 0 0 0.1 0 0.4-0.3 0.8-0.5 0.1 0 0.2 0 0.2-0.2 0.5-0.3 0 0 0 0 0.2-1.4 0.2-2.7c0-8.4-4.5-15.7-11.2-19.6-6.7 3.9-11.2 11.2-11.2 19.6q0 1.3 0.2 2.7 0 0 0 0 0.3 0.1 0.5 0.3 0.1 0 0.2 0 0.4 0.3 0.8 0.4 0.1 0.1 0.1 0.1 0.3 0.1 0.5 0.2 0 0 0.1 0.1 0.1 0 0.3 0.1 0 0 0.1 0.1 0.2 0 0.4 0.1 0.1 0 0.2 0.1 0.1 0 0.3 0.1 0.1 0 0.2 0 0.1 0.1 0.3 0.2 0.1 0 0.2 0 0.2 0.1 0.3 0.1 0.1 0.1 0.3 0.1 0.1 0 0.2 0.1 0.2 0 0.3 0.1 0.1 0 0.2 0 0.2 0.1 0.4 0.1 0.1 0 0.2 0 0.1 0.1 0.3 0.1 0.1 0 0.2 0 0.2 0.1 0.4 0.1 0.1 0 0.1 0.1 0.2 0 0.4 0 0.1 0 0.1 0 0.3 0.1 0.5 0.1 0.1 0 0.1 0 0.2 0 0.4 0.1 0.1 0 0.1 0 0.3 0 0.5 0 0.1 0 0.2 0 0.2 0 0.4 0.1 0 0 0.1 0 0.2 0 0.5 0 0 0 0.1 0 0.2 0 0.5 0 0.3 0 0.5 0 0.1 0 0.1 0z"/></svg>